# xmcd
#
# Track frame offsets: 
#        150
#        19592
#        36587
#        54342
#        70750
#        87202
#        104345
#        122787
#        139195
#        155702
#        177187
#        193007
#        209284
#
# Disc length: 2998 seconds
#
# Revision: 3
# Processed by: cddbd v1.4PL0 Copyright (c) Steve Scherf et al.
# Submitted via: ExactAudioCopy v0.90b4
#
DISCID=b60bb40d
DTITLE=Vanessa Amorosi - The Power
DYEAR=2000
DGENRE=Pop
TTITLE0=U R Mine
TTITLE1=Absolutely Everybody
TTITLE2=Shine
TTITLE3=Have a Look
TTITLE4=Pray For Love
TTITLE5=Every Time I Close My Eyes
TTITLE6=How Y' Livin'
TTITLE7=The Power
TTITLE8=I Wanna Be Your Everything
TTITLE9=You Were Led on
TTITLE10=Pray For Love (Club Mix)
TTITLE11=The Power (Spiced Mix)
TTITLE12=Absolutely Everybody (Latino Mix)
EXTD=
EXTT0=(c) MaKueh Records
EXTT1=(c) MaKueh Records
EXTT2=(c) MaKueh Records
EXTT3=(c) MaKueh Records
EXTT4=(c) MaKueh Records
EXTT5=(c) MaKueh Records
EXTT6=(c) MaKueh Records
EXTT7=(c) MaKueh Records
EXTT8=(c) MaKueh Records
EXTT9=(c) MaKueh Records
EXTT10=(c) MaKueh Records
EXTT11=(c) MaKueh Records
EXTT12=(c) MaKueh Records
PLAYORDER=
